<svg xmlns="http://www.w3.org/2000/svg" viewBox="0 0 32 32">
  <rect width="32" height="32" rx="6" fill="#DC2626"/>
  <path d="M16 8 C12 8 9 11 9 15 C9 19 12 22 16 22 C20 22 23 19 23 15 C23 11 20 8 16 8 M15 20 C12 19.5 10 17 10 15 C10 14 10.2 13 10.6 12 L14 16 L14 17 C14 18 15 19 16 19 L15 20 M19 19 C18.5 18 18 17.5 17 17.5 L16 17.5 L16 15.5 C16 15 15.5 14.5 15 14.5 L12 14.5 L12 13 L13.5 13 C14 13 14.5 12.5 14.5 12 L14.5 10.5 L16 10.5 C17 10.5 18 9.5 18 8.5 L18 8.3 C20 9 21.5 11 21.5 15 C21.5 17 20.5 18.5 19 19" fill="white"/>
</svg>