<svg xmlns="http://www.w3.org/2000/svg" width="1280" height="720" viewBox="0 0 1280 720">
  <defs>
    <linearGradient id="headerGradD" x1="0%" y1="0%" x2="100%" y2="0%">
      <stop offset="0%" style="stop-color:#dc2626"/>
      <stop offset="100%" style="stop-color:#b91c1c"/>
    </linearGradient>
    <linearGradient id="sidebarGrad" x1="0%" y1="0%" x2="0%" y2="100%">
      <stop offset="0%" style="stop-color:#1f2937"/>
      <stop offset="100%" style="stop-color:#111827"/>
    </linearGradient>
    <filter id="shadowD" x="-10%" y="-10%" width="120%" height="130%">
      <feDropShadow dx="0" dy="4" stdDeviation="8" flood-opacity="0.1"/>
    </filter>
  </defs>

  <!-- Background -->
  <rect width="1280" height="720" fill="#f3f4f6"/>

  <!-- Sidebar -->
  <rect width="260" height="720" fill="url(#sidebarGrad)"/>

  <!-- Logo -->
  <text x="30" y="50" fill="white" font-family="system-ui, sans-serif" font-size="24" font-weight="800">SOS Expat</text>
  <text x="145" y="50" fill="#dc2626" font-size="28">&#127384;</text>

  <!-- Sidebar Menu -->
  <rect x="15" y="90" width="230" height="44" rx="8" fill="rgba(220,38,38,0.2)"/>
  <text x="50" y="118" fill="#dc2626" font-size="18">&#128200;</text>
  <text x="80" y="118" fill="white" font-family="system-ui, sans-serif" font-size="14" font-weight="500">Tableau de bord</text>

  <g transform="translate(0, 60)">
    <text x="50" y="118" fill="#9ca3af" font-size="18">&#128101;</text>
    <text x="80" y="118" fill="#9ca3af" font-family="system-ui, sans-serif" font-size="14">Mes consultations</text>
  </g>

  <g transform="translate(0, 110)">
    <text x="50" y="118" fill="#9ca3af" font-size="18">&#128176;</text>
    <text x="80" y="118" fill="#9ca3af" font-family="system-ui, sans-serif" font-size="14">Paiements</text>
  </g>

  <g transform="translate(0, 160)">
    <text x="50" y="118" fill="#9ca3af" font-size="18">&#128196;</text>
    <text x="80" y="118" fill="#9ca3af" font-family="system-ui, sans-serif" font-size="14">Documents</text>
  </g>

  <g transform="translate(0, 210)">
    <text x="50" y="118" fill="#9ca3af" font-size="18">&#9881;</text>
    <text x="80" y="118" fill="#9ca3af" font-family="system-ui, sans-serif" font-size="14">Parametres</text>
  </g>

  <!-- User Profile at bottom -->
  <rect x="15" y="640" width="230" height="60" rx="8" fill="rgba(255,255,255,0.05)"/>
  <circle cx="50" cy="670" r="20" fill="#4b5563"/>
  <text x="50" y="676" text-anchor="middle" fill="white" font-size="16">JD</text>
  <text x="80" y="662" fill="white" font-family="system-ui, sans-serif" font-size="14" font-weight="500">Jean Dubois</text>
  <text x="80" y="682" fill="#9ca3af" font-family="system-ui, sans-serif" font-size="12">Client Premium</text>

  <!-- Main Content Area -->
  <!-- Header -->
  <rect x="260" y="0" width="1020" height="70" fill="white" filter="url(#shadowD)"/>
  <text x="290" y="42" fill="#1f2937" font-family="system-ui, sans-serif" font-size="20" font-weight="600">Tableau de bord</text>

  <!-- Search -->
  <rect x="500" y="18" width="400" height="36" rx="18" fill="#f3f4f6"/>
  <text x="530" y="42" fill="#9ca3af" font-family="system-ui, sans-serif" font-size="14">&#128269; Rechercher...</text>

  <!-- Notifications -->
  <circle cx="1000" cy="35" r="18" fill="#fef2f2"/>
  <text x="994" y="41" fill="#dc2626" font-size="16">&#128276;</text>
  <circle cx="1010" cy="25" r="8" fill="#dc2626"/>
  <text x="1007" y="29" fill="white" font-size="10" font-weight="bold">3</text>

  <!-- Language -->
  <rect x="1040" y="17" width="80" height="36" rx="8" fill="#f3f4f6"/>
  <text x="1060" y="40" fill="#1f2937" font-family="system-ui, sans-serif" font-size="14">&#127467;&#127479; FR</text>

  <!-- Profile -->
  <circle cx="1160" cy="35" r="18" fill="#dc2626"/>
  <text x="1160" y="41" text-anchor="middle" fill="white" font-size="14" font-weight="bold">JD</text>

  <!-- Stats Cards Row -->
  <rect x="290" y="100" width="220" height="120" rx="16" fill="white" filter="url(#shadowD)"/>
  <text x="320" y="140" fill="#dc2626" font-size="24">&#128222;</text>
  <text x="320" y="175" fill="#1f2937" font-family="system-ui, sans-serif" font-size="28" font-weight="700">12</text>
  <text x="320" y="200" fill="#6b7280" font-family="system-ui, sans-serif" font-size="14">Consultations</text>
  <text x="430" y="200" fill="#22c55e" font-family="system-ui, sans-serif" font-size="12">+23%</text>

  <rect x="530" y="100" width="220" height="120" rx="16" fill="white" filter="url(#shadowD)"/>
  <text x="560" y="140" fill="#22c55e" font-size="24">&#128178;</text>
  <text x="560" y="175" fill="#1f2937" font-family="system-ui, sans-serif" font-size="28" font-weight="700">847EUR</text>
  <text x="560" y="200" fill="#6b7280" font-family="system-ui, sans-serif" font-size="14">Depenses totales</text>

  <rect x="770" y="100" width="220" height="120" rx="16" fill="white" filter="url(#shadowD)"/>
  <text x="800" y="140" fill="#3b82f6" font-size="24">&#9734;</text>
  <text x="800" y="175" fill="#1f2937" font-family="system-ui, sans-serif" font-size="28" font-weight="700">4.8</text>
  <text x="800" y="200" fill="#6b7280" font-family="system-ui, sans-serif" font-size="14">Note moyenne</text>
  <text x="800" y="218" fill="#fbbf24" font-size="12">&#9733;&#9733;&#9733;&#9733;&#9733;</text>

  <rect x="1010" y="100" width="220" height="120" rx="16" fill="white" filter="url(#shadowD)"/>
  <text x="1040" y="140" fill="#8b5cf6" font-size="24">&#128205;</text>
  <text x="1040" y="175" fill="#1f2937" font-family="system-ui, sans-serif" font-size="28" font-weight="700">5</text>
  <text x="1040" y="200" fill="#6b7280" font-family="system-ui, sans-serif" font-size="14">Pays consultes</text>

  <!-- Recent Consultations -->
  <rect x="290" y="250" width="500" height="440" rx="16" fill="white" filter="url(#shadowD)"/>
  <text x="320" y="290" fill="#1f2937" font-family="system-ui, sans-serif" font-size="18" font-weight="600">Consultations recentes</text>
  <text x="710" y="290" fill="#dc2626" font-family="system-ui, sans-serif" font-size="14">Voir tout &#8594;</text>

  <!-- Consultation Item 1 -->
  <rect x="310" y="310" width="460" height="80" rx="12" fill="#fef2f2"/>
  <circle cx="360" cy="350" r="25" fill="#dc2626"/>
  <text x="360" y="356" text-anchor="middle" fill="white" font-size="16">SM</text>
  <text x="400" y="340" fill="#1f2937" font-family="system-ui, sans-serif" font-size="14" font-weight="600">Me. Sophie Martin</text>
  <text x="400" y="360" fill="#6b7280" font-family="system-ui, sans-serif" font-size="12">Immigration - Visa long sejour</text>
  <text x="400" y="378" fill="#9ca3af" font-family="system-ui, sans-serif" font-size="11">Il y a 2 heures</text>
  <rect x="680" y="335" width="70" height="26" rx="13" fill="#dcfce7"/>
  <text x="715" y="353" text-anchor="middle" fill="#16a34a" font-family="system-ui, sans-serif" font-size="11" font-weight="500">Termine</text>

  <!-- Consultation Item 2 -->
  <rect x="310" y="400" width="460" height="80" rx="12" fill="#f3f4f6"/>
  <circle cx="360" cy="440" r="25" fill="#3b82f6"/>
  <text x="360" y="446" text-anchor="middle" fill="white" font-size="16">JD</text>
  <text x="400" y="430" fill="#1f2937" font-family="system-ui, sans-serif" font-size="14" font-weight="600">Me. Jean Dupont</text>
  <text x="400" y="450" fill="#6b7280" font-family="system-ui, sans-serif" font-size="12">Fiscalite internationale</text>
  <text x="400" y="468" fill="#9ca3af" font-family="system-ui, sans-serif" font-size="11">Hier, 15:30</text>
  <rect x="680" y="425" width="70" height="26" rx="13" fill="#dcfce7"/>
  <text x="715" y="443" text-anchor="middle" fill="#16a34a" font-family="system-ui, sans-serif" font-size="11" font-weight="500">Termine</text>

  <!-- Consultation Item 3 -->
  <rect x="310" y="490" width="460" height="80" rx="12" fill="#f3f4f6"/>
  <circle cx="360" cy="530" r="25" fill="#8b5cf6"/>
  <text x="360" y="536" text-anchor="middle" fill="white" font-size="16">AH</text>
  <text x="400" y="520" fill="#1f2937" font-family="system-ui, sans-serif" font-size="14" font-weight="600">Me. Ahmed Hassan</text>
  <text x="400" y="540" fill="#6b7280" font-family="system-ui, sans-serif" font-size="12">Droit des affaires - Contrat</text>
  <text x="400" y="558" fill="#9ca3af" font-family="system-ui, sans-serif" font-size="11">25 Dec 2024</text>
  <rect x="680" y="515" width="70" height="26" rx="13" fill="#dcfce7"/>
  <text x="715" y="533" text-anchor="middle" fill="#16a34a" font-family="system-ui, sans-serif" font-size="11" font-weight="500">Termine</text>

  <!-- Consultation Item 4 -->
  <rect x="310" y="580" width="460" height="80" rx="12" fill="#f3f4f6"/>
  <circle cx="360" cy="620" r="25" fill="#f59e0b"/>
  <text x="360" y="626" text-anchor="middle" fill="white" font-size="16">LC</text>
  <text x="400" y="610" fill="#1f2937" font-family="system-ui, sans-serif" font-size="14" font-weight="600">Me. Laura Chen</text>
  <text x="400" y="630" fill="#6b7280" font-family="system-ui, sans-serif" font-size="12">Propriete intellectuelle</text>
  <text x="400" y="648" fill="#9ca3af" font-family="system-ui, sans-serif" font-size="11">Demain, 10:00</text>
  <rect x="680" y="605" width="70" height="26" rx="13" fill="#fef3c7"/>
  <text x="715" y="623" text-anchor="middle" fill="#d97706" font-family="system-ui, sans-serif" font-size="11" font-weight="500">Planifie</text>

  <!-- Quick Actions Panel -->
  <rect x="810" y="250" width="420" height="200" rx="16" fill="white" filter="url(#shadowD)"/>
  <text x="840" y="290" fill="#1f2937" font-family="system-ui, sans-serif" font-size="18" font-weight="600">Actions rapides</text>

  <rect x="840" y="310" width="170" height="50" rx="12" fill="#dc2626"/>
  <text x="860" y="342" fill="white" font-size="18">&#128222;</text>
  <text x="890" y="342" fill="white" font-family="system-ui, sans-serif" font-size="14" font-weight="500">Appel urgent</text>

  <rect x="1030" y="310" width="170" height="50" rx="12" fill="#f3f4f6"/>
  <text x="1050" y="342" fill="#1f2937" font-size="18">&#128197;</text>
  <text x="1080" y="342" fill="#1f2937" font-family="system-ui, sans-serif" font-size="14" font-weight="500">Planifier</text>

  <rect x="840" y="375" width="170" height="50" rx="12" fill="#f3f4f6"/>
  <text x="860" y="407" fill="#1f2937" font-size="18">&#128196;</text>
  <text x="890" y="407" fill="#1f2937" font-family="system-ui, sans-serif" font-size="14" font-weight="500">Documents</text>

  <rect x="1030" y="375" width="170" height="50" rx="12" fill="#f3f4f6"/>
  <text x="1050" y="407" fill="#1f2937" font-size="18">&#128172;</text>
  <text x="1080" y="407" fill="#1f2937" font-family="system-ui, sans-serif" font-size="14" font-weight="500">Support</text>

  <!-- Countries Panel -->
  <rect x="810" y="470" width="420" height="220" rx="16" fill="white" filter="url(#shadowD)"/>
  <text x="840" y="510" fill="#1f2937" font-family="system-ui, sans-serif" font-size="18" font-weight="600">Couverture mondiale</text>

  <text x="840" y="550" fill="#1f2937" font-family="system-ui, sans-serif" font-size="36" font-weight="800">197</text>
  <text x="920" y="550" fill="#6b7280" font-family="system-ui, sans-serif" font-size="14">pays couverts</text>

  <!-- Country flags -->
  <text x="840" y="590" font-size="24">&#127467;&#127479;</text>
  <text x="875" y="590" font-size="24">&#127468;&#127463;</text>
  <text x="910" y="590" font-size="24">&#127465;&#127466;</text>
  <text x="945" y="590" font-size="24">&#127466;&#127480;</text>
  <text x="980" y="590" font-size="24">&#127464;&#127475;</text>
  <text x="1015" y="590" font-size="24">&#127471;&#127477;</text>
  <text x="1050" y="590" font-size="24">&#127463;&#127479;</text>
  <text x="1085" y="590" font-size="24">&#127462;&#127466;</text>
  <text x="1120" y="590" font-size="24">&#127470;&#127475;</text>
  <text x="1155" y="590" font-size="24">+188</text>

  <!-- Languages -->
  <rect x="840" y="615" width="370" height="55" rx="8" fill="#fef2f2"/>
  <text x="860" y="640" fill="#dc2626" font-family="system-ui, sans-serif" font-size="12" font-weight="600">9 langues disponibles</text>
  <text x="860" y="658" fill="#6b7280" font-family="system-ui, sans-serif" font-size="11">FR EN ES DE PT RU AR ZH HI</text>
</svg>
